<?xml version="1.0" encoding="UTF-8" standalone="no"?>
<!-- Generator: Adobe Illustrator 16.0.0, SVG Export Plug-In . SVG Version: 6.00 Build 0)  -->

<svg
   xmlns:dc="http://purl.org/dc/elements/1.1/"
   xmlns:cc="http://creativecommons.org/ns#"
   xmlns:rdf="http://www.w3.org/1999/02/22-rdf-syntax-ns#"
   xmlns:svg="http://www.w3.org/2000/svg"
   xmlns="http://www.w3.org/2000/svg"
   xmlns:xlink="http://www.w3.org/1999/xlink"
   xmlns:sodipodi="http://sodipodi.sourceforge.net/DTD/sodipodi-0.dtd"
   xmlns:inkscape="http://www.inkscape.org/namespaces/inkscape"
   version="1.1"
   id="Capa_1"
   x="0px"
   y="0px"
   width="170.40884"
   height="52.323959"
   viewBox="0 0 170.40884 52.323959"
   enable-background="new 0 0 215 60"
   xml:space="preserve"
   sodipodi:docname="logo.svg"
   inkscape:export-filename="/home/franco/git/monitor/app/assets/images/gredit-blanco.png"
   inkscape:export-xdpi="113.93"
   inkscape:export-ydpi="113.93"
   inkscape:version="0.92.4 5da689c313, 2019-01-14"><metadata
   id="metadata37"><rdf:RDF><cc:Work
       rdf:about=""><dc:format>image/svg+xml</dc:format><dc:type
         rdf:resource="http://purl.org/dc/dcmitype/StillImage" /><dc:title></dc:title></cc:Work></rdf:RDF></metadata><defs
   id="defs35">
	
	
	
</defs><sodipodi:namedview
   pagecolor="#ffffff"
   bordercolor="#666666"
   borderopacity="1"
   objecttolerance="10"
   gridtolerance="10"
   guidetolerance="10"
   inkscape:pageopacity="0"
   inkscape:pageshadow="2"
   inkscape:window-width="3200"
   inkscape:window-height="1672"
   id="namedview33"
   showgrid="false"
   fit-margin-top="0"
   fit-margin-left="0"
   fit-margin-right="0"
   fit-margin-bottom="0"
   inkscape:zoom="7.8666667"
   inkscape:cx="61.53674"
   inkscape:cy="29.498763"
   inkscape:window-x="0"
   inkscape:window-y="54"
   inkscape:window-maximized="1"
   inkscape:current-layer="Capa_1" />
<g
   id="g938"
   style="fill:#f9f9f9"
   transform="matrix(0.87932037,0,0,0.87932037,-14.689926,-0.21807145)"><g
     enable-background="new    "
     id="g16"
     style="fill:#f9f9f9">
		<g
   id="g12"
   style="fill:#f9f9f9">
			<g
   id="g10"
   style="fill:#f9f9f9">
				<defs
   id="defs3">
					<path
   id="SVGID_1_"
   d="m 107.104,16.088 c -0.715,0.207 -1.39,0.057 -2.024,-0.451 -0.633,-0.507 -1.981,-0.801 -4.046,-0.885 -2.065,-0.082 -3.715,0.751 -4.95,2.498 -1.235,1.749 -1.806,3.771 -1.712,6.066 0.093,2.297 0.549,4.051 1.37,5.261 0.819,1.21 1.919,2.018 3.3,2.421 1.38,0.402 3.398,0.491 6.054,0.262 v -6.516 l -4.419,-0.031 c -0.915,-0.063 -1.37,-0.671 -1.37,-1.83 0,-1.158 0.487,-1.736 1.463,-1.736 h 5.261 c 1.826,-0.104 2.604,0.797 2.335,2.698 v 8.845 c -0.251,1.18 -0.915,1.811 -1.994,1.893 -1.849,0.207 -3.873,0.254 -6.07,0.143 -2.201,-0.115 -4.076,-0.757 -5.621,-1.927 -1.546,-1.168 -2.642,-2.787 -3.285,-4.856 -0.644,-2.067 -0.773,-4.479 -0.39,-7.229 0.385,-2.751 1.359,-4.882 2.928,-6.392 1.566,-1.51 3.217,-2.416 4.951,-2.715 1.733,-0.301 3.248,-0.383 4.545,-0.248 1.295,0.135 2.469,0.48 3.515,1.037 1.052,0.56 1.518,1.265 1.405,2.11 -0.114,0.848 -0.528,1.374 -1.246,1.582 z m 19.789,9.648 3.738,6.177 c 0.641,1.056 0.504,1.894 -0.42,2.514 -0.924,0.62 -1.699,0.538 -2.32,-0.247 l -4.08,-6.798 c -0.873,-1.571 -2.035,-2.307 -3.484,-2.202 h -2.557 v 8.379 c -0.063,0.808 -0.621,1.211 -1.682,1.211 -1.059,0 -1.619,-0.436 -1.682,-1.306 V 13.107 c 0,-1.138 0.531,-1.695 1.588,-1.676 h 4.486 c 2.779,-0.145 4.857,0.579 6.227,2.172 1.371,1.594 1.846,3.533 1.432,5.818 -0.416,2.285 -1.787,3.707 -4.107,4.268 1.181,-0.125 2.135,0.559 2.861,2.047 z m -2.305,-6.048 c 0.479,-1.406 0.355,-2.564 -0.373,-3.476 -0.727,-0.911 -1.805,-1.346 -3.238,-1.304 h -3.393 v 6.824 h 3.736 c 1.702,0.043 2.792,-0.638 3.268,-2.044 z m 25.004,15.017 h -12.205 c -0.871,0 -1.299,-0.434 -1.277,-1.303 v -20.45 c 0,-1.013 0.438,-1.521 1.311,-1.521 h 9.869 c 0.893,0 1.35,0.538 1.371,1.612 0.02,1.077 -0.396,1.636 -1.244,1.676 h -7.91 v 6.083 h 4.545 c 0.811,0.021 1.211,0.549 1.199,1.582 -0.01,1.035 -0.398,1.614 -1.166,1.738 h -4.52 l 0.033,7.014 h 9.934 c 0.912,0.165 1.357,0.779 1.34,1.846 -0.024,1.068 -0.45,1.641 -1.28,1.723 z m 22.936,-7.323 c -0.365,1.966 -1.35,3.724 -2.961,5.275 -1.607,1.553 -3.73,2.235 -6.367,2.048 h -6.164 c -0.643,0 -0.957,-0.34 -0.936,-1.023 V 12.518 c 0.02,-0.806 0.447,-1.209 1.277,-1.209 h 5.014 c 3.029,0.021 5.428,1.014 7.191,2.979 1.766,1.965 2.789,4.147 3.066,6.548 0.284,2.398 0.241,4.581 -0.12,6.546 z m -4.455,-9.185 c -1.068,-2.131 -2.609,-3.247 -4.623,-3.353 h -3.705 v 16.229 h 3.83 c 1.723,0.104 3.107,-0.436 4.158,-1.612 1.045,-1.18 1.633,-2.819 1.758,-4.92 0.125,-2.101 -0.35,-4.213 -1.418,-6.344 z m 17.484,-3.599 -1.215,0.03 v 16.819 h 1.59 c 0.996,0.042 1.488,0.584 1.479,1.629 -0.01,1.047 -0.521,1.568 -1.539,1.568 h -6.541 c -0.996,0.061 -1.494,-0.446 -1.494,-1.521 0,-1.075 0.52,-1.624 1.557,-1.645 l 1.525,-0.031 V 14.66 h -1.15 c -1.141,-0.043 -1.703,-0.579 -1.682,-1.615 0.02,-1.033 0.623,-1.561 1.807,-1.582 h 5.541 c 1.309,0.042 1.928,0.592 1.854,1.646 -0.074,1.054 -0.654,1.551 -1.732,1.489 z m 23.322,0.186 h -5.822 v 18.68 c -0.043,0.87 -0.635,1.3 -1.773,1.288 -1.145,-0.01 -1.742,-0.449 -1.809,-1.318 V 14.846 h -5.791 c -1.143,0 -1.713,-0.574 -1.713,-1.723 0,-1.146 0.541,-1.711 1.619,-1.689 h 15.289 c 1.039,-0.021 1.58,0.521 1.621,1.629 0.04,1.105 -0.498,1.68 -1.621,1.721 z"
   inkscape:connector-curvature="0" />
				</defs>
				<use
   xlink:href="#SVGID_1_"
   overflow="visible"
   id="use5"
   style="overflow:visible;fill:#f9f9f9"
   x="0"
   y="0"
   width="100%"
   height="100%" />
				<clipPath
   id="SVGID_2_">
					<use
   xlink:href="#SVGID_1_"
   overflow="visible"
   id="use7"
   style="overflow:visible"
   x="0"
   y="0"
   width="100%"
   height="100%" />
				</clipPath>
			</g>
		</g>
		<path
   d="m 192.067,49.145 c -0.125,0 -0.24,-0.047 -0.336,-0.136 -0.092,-0.086 -0.139,-0.196 -0.139,-0.325 V 43.98 c 0,-0.228 0.125,-0.383 0.352,-0.44 0.213,-0.058 0.41,0.015 0.529,0.208 0.9,1.479 1.564,2.602 1.979,3.346 v -3.117 c 0,-0.125 0.047,-0.232 0.141,-0.322 0.189,-0.178 0.486,-0.176 0.664,0 0.092,0.092 0.139,0.199 0.139,0.322 v 4.705 c 0,0.228 -0.123,0.385 -0.35,0.44 -0.047,0.013 -0.096,0.021 -0.146,0.021 -0.107,0 -0.264,-0.039 -0.383,-0.227 -0.898,-1.482 -1.561,-2.615 -1.979,-3.381 v 3.148 c 0,0.125 -0.045,0.234 -0.137,0.323 -0.094,0.092 -0.209,0.139 -0.334,0.139 z m -66.674,0 c -0.131,0 -0.244,-0.047 -0.336,-0.137 -0.092,-0.087 -0.139,-0.195 -0.139,-0.324 V 43.98 c 0,-0.228 0.125,-0.383 0.348,-0.44 0.055,-0.013 0.104,-0.019 0.15,-0.019 0.109,0 0.268,0.039 0.383,0.228 0.9,1.476 1.563,2.597 1.977,3.344 v -3.116 c 0,-0.123 0.049,-0.231 0.145,-0.322 0.182,-0.176 0.479,-0.172 0.664,-0.002 0.092,0.098 0.137,0.203 0.137,0.324 v 4.705 c 0,0.229 -0.123,0.385 -0.35,0.44 -0.049,0.013 -0.1,0.021 -0.146,0.021 -0.107,0 -0.262,-0.039 -0.381,-0.227 -0.922,-1.521 -1.574,-2.635 -1.979,-3.38 v 3.147 c 0,0.129 -0.049,0.238 -0.141,0.325 -0.096,0.092 -0.207,0.137 -0.332,0.137 z m -17.529,0 c -0.126,0 -0.241,-0.047 -0.334,-0.137 -0.093,-0.085 -0.141,-0.193 -0.141,-0.324 V 43.98 c 0,-0.228 0.125,-0.383 0.351,-0.44 0.226,-0.056 0.412,0.015 0.531,0.209 0.903,1.483 1.564,2.604 1.977,3.344 v -3.116 c 0,-0.123 0.049,-0.231 0.144,-0.322 0.182,-0.174 0.481,-0.176 0.663,-0.002 0.094,0.094 0.141,0.201 0.141,0.324 v 4.705 c 0,0.228 -0.125,0.385 -0.353,0.44 -0.212,0.055 -0.41,-0.019 -0.527,-0.208 -0.919,-1.514 -1.571,-2.627 -1.979,-3.377 v 3.146 c 0,0.125 -0.046,0.234 -0.137,0.323 -0.099,0.094 -0.21,0.139 -0.336,0.139 z m 102.021,-0.004 h -2.684 c -0.127,0 -0.24,-0.045 -0.334,-0.135 -0.092,-0.087 -0.139,-0.199 -0.139,-0.326 v -4.718 c 0,-0.128 0.047,-0.235 0.139,-0.323 0.092,-0.09 0.203,-0.135 0.334,-0.135 h 2.684 c 0.127,0 0.238,0.045 0.332,0.135 0.092,0.086 0.141,0.194 0.141,0.323 0,0.129 -0.049,0.238 -0.141,0.326 -0.09,0.088 -0.203,0.133 -0.332,0.133 h -2.209 v 1.437 h 1.834 c 0.127,0 0.242,0.045 0.334,0.131 0.092,0.093 0.139,0.205 0.139,0.328 0,0.123 -0.047,0.231 -0.137,0.324 -0.094,0.088 -0.205,0.131 -0.336,0.131 h -1.834 v 1.455 h 2.209 c 0.125,0 0.236,0.043 0.33,0.127 0.094,0.09 0.143,0.199 0.143,0.326 0,0.129 -0.049,0.241 -0.143,0.327 -0.093,0.089 -0.205,0.134 -0.33,0.134 z m -8.556,0 c -0.791,0 -1.477,-0.276 -2.039,-0.822 -0.563,-0.549 -0.85,-1.217 -0.85,-1.984 0,-0.77 0.285,-1.439 0.85,-1.986 0.561,-0.549 1.246,-0.826 2.039,-0.826 0.475,0 0.93,0.111 1.355,0.33 0.416,0.217 0.768,0.522 1.039,0.91 0.055,0.08 0.082,0.165 0.082,0.256 0,0.023 -0.004,0.057 -0.008,0.086 -0.027,0.129 -0.1,0.23 -0.207,0.299 -0.119,0.07 -0.229,0.084 -0.35,0.066 -0.131,-0.023 -0.234,-0.093 -0.307,-0.197 -0.176,-0.254 -0.412,-0.461 -0.699,-0.611 -0.279,-0.145 -0.586,-0.219 -0.906,-0.219 -0.543,0 -0.992,0.182 -1.373,0.555 -0.383,0.375 -0.568,0.813 -0.568,1.339 0,0.524 0.188,0.963 0.568,1.339 0.381,0.372 0.83,0.555 1.373,0.555 0.316,0 0.625,-0.074 0.908,-0.223 0.283,-0.146 0.52,-0.352 0.699,-0.609 0.07,-0.106 0.174,-0.176 0.303,-0.194 0.123,-0.025 0.238,-0.003 0.346,0.062 0.111,0.071 0.184,0.174 0.209,0.297 0.006,0.041 0.01,0.067 0.01,0.097 0,0.087 -0.025,0.168 -0.078,0.245 -0.271,0.393 -0.623,0.699 -1.043,0.914 -0.426,0.21 -0.881,0.321 -1.353,0.321 z m -12.983,0 c -0.098,0 -0.188,-0.025 -0.268,-0.078 -0.076,-0.051 -0.133,-0.117 -0.174,-0.207 l -0.586,-1.391 h -1.908 l -0.588,1.389 c -0.049,0.114 -0.133,0.199 -0.254,0.248 -0.121,0.049 -0.244,0.049 -0.361,0.004 -0.117,-0.043 -0.205,-0.125 -0.258,-0.241 -0.053,-0.119 -0.053,-0.237 -0.004,-0.354 l 1.979,-4.701 c 0.041,-0.091 0.102,-0.16 0.18,-0.211 0.145,-0.099 0.369,-0.104 0.523,0.004 0.078,0.049 0.141,0.121 0.176,0.209 l 1.975,4.698 c 0.051,0.116 0.051,0.234 0,0.354 -0.055,0.117 -0.145,0.199 -0.266,0.244 -0.047,0.02 -0.105,0.033 -0.166,0.033 z m -7.347,0 c -0.16,0 -0.295,-0.065 -0.389,-0.189 l -1.73,-2.354 c 0,-0.002 0,-0.002 0,-0.002 v 2.088 c 0,0.127 -0.047,0.236 -0.139,0.325 -0.184,0.175 -0.479,0.177 -0.666,0.002 -0.094,-0.086 -0.141,-0.196 -0.141,-0.327 V 43.98 c 0,-0.127 0.047,-0.236 0.137,-0.323 0.098,-0.091 0.211,-0.136 0.338,-0.136 h 1.473 c 0.484,0 0.881,0.17 1.18,0.504 0.258,0.289 0.396,0.646 0.412,1.061 v 0.09 c 0,0.46 -0.137,0.831 -0.408,1.105 -0.229,0.226 -0.531,0.371 -0.93,0.445 l 1.248,1.691 c 0.059,0.088 0.086,0.176 0.086,0.266 0,0.024 -0.002,0.047 -0.004,0.068 -0.027,0.139 -0.092,0.237 -0.197,0.307 -0.085,0.053 -0.177,0.083 -0.27,0.083 z m -2.12,-4.702 v 1.625 c 0.09,-0.127 0.221,-0.189 0.385,-0.189 0.73,0 1.014,-0.128 1.121,-0.234 0.096,-0.094 0.145,-0.25 0.145,-0.467 v -0.06 c -0.01,-0.181 -0.063,-0.339 -0.16,-0.464 -0.113,-0.143 -0.273,-0.211 -0.488,-0.211 z m -6.033,4.702 c -0.527,0 -0.984,-0.183 -1.361,-0.539 -0.377,-0.362 -0.566,-0.804 -0.566,-1.311 v -3.313 c 0,-0.125 0.045,-0.233 0.137,-0.322 0.193,-0.182 0.48,-0.182 0.67,-0.002 0.092,0.091 0.139,0.199 0.139,0.324 v 3.313 c 0,0.253 0.098,0.475 0.289,0.657 0.193,0.187 0.422,0.276 0.695,0.276 0.273,0 0.502,-0.091 0.699,-0.276 0.188,-0.183 0.285,-0.402 0.285,-0.657 v -3.313 c 0,-0.125 0.047,-0.232 0.143,-0.324 0.188,-0.182 0.484,-0.178 0.666,0.002 0.092,0.092 0.137,0.199 0.137,0.322 v 3.313 c 0,0.508 -0.189,0.949 -0.566,1.311 -0.377,0.356 -0.838,0.539 -1.367,0.539 z m -6.689,0 c -0.391,0 -0.762,-0.109 -1.102,-0.326 -0.34,-0.217 -0.586,-0.504 -0.73,-0.85 -0.051,-0.115 -0.051,-0.23 0,-0.343 0.049,-0.111 0.135,-0.192 0.246,-0.237 0.123,-0.048 0.242,-0.046 0.357,0.006 0.111,0.047 0.197,0.131 0.242,0.238 0.076,0.184 0.203,0.33 0.387,0.45 0.186,0.114 0.387,0.175 0.6,0.175 0.25,0 0.461,-0.074 0.631,-0.223 0.176,-0.147 0.258,-0.315 0.258,-0.516 0,-0.217 -0.066,-0.371 -0.205,-0.472 -0.09,-0.062 -0.303,-0.164 -0.807,-0.296 -0.494,-0.128 -0.859,-0.271 -1.082,-0.428 -0.396,-0.271 -0.6,-0.665 -0.6,-1.174 0,-0.448 0.182,-0.838 0.535,-1.154 0.354,-0.313 0.779,-0.473 1.27,-0.473 0.41,0 0.781,0.114 1.1,0.342 0.32,0.231 0.541,0.541 0.656,0.921 0.037,0.114 0.025,0.229 -0.033,0.337 -0.064,0.107 -0.156,0.178 -0.275,0.214 -0.125,0.032 -0.236,0.021 -0.346,-0.035 -0.107,-0.053 -0.182,-0.141 -0.223,-0.262 -0.061,-0.199 -0.166,-0.349 -0.322,-0.461 -0.156,-0.112 -0.342,-0.169 -0.557,-0.169 -0.246,0 -0.461,0.074 -0.633,0.222 -0.172,0.148 -0.256,0.317 -0.256,0.519 0,0.205 0.066,0.354 0.205,0.453 0.123,0.088 0.393,0.186 0.797,0.293 0.518,0.138 0.873,0.278 1.092,0.433 0.396,0.274 0.6,0.675 0.6,1.19 0,0.443 -0.18,0.832 -0.535,1.15 -0.348,0.315 -0.776,0.476 -1.27,0.476 z m -6.407,0 c -0.393,0 -0.764,-0.109 -1.104,-0.326 -0.344,-0.222 -0.588,-0.508 -0.729,-0.851 -0.051,-0.112 -0.051,-0.229 0,-0.345 0.049,-0.107 0.133,-0.189 0.248,-0.234 0.119,-0.048 0.236,-0.044 0.354,0.006 0.107,0.045 0.191,0.127 0.24,0.236 0.078,0.184 0.207,0.332 0.391,0.452 0.184,0.114 0.387,0.175 0.6,0.175 0.252,0 0.457,-0.072 0.631,-0.224 0.172,-0.146 0.254,-0.313 0.254,-0.515 0,-0.219 -0.066,-0.373 -0.203,-0.472 -0.088,-0.062 -0.299,-0.164 -0.807,-0.296 -0.492,-0.128 -0.855,-0.271 -1.082,-0.426 -0.395,-0.271 -0.594,-0.667 -0.594,-1.176 0,-0.449 0.178,-0.838 0.529,-1.154 0.355,-0.313 0.781,-0.473 1.271,-0.473 0.414,0 0.783,0.115 1.1,0.342 0.318,0.228 0.539,0.537 0.656,0.92 0.035,0.119 0.021,0.232 -0.037,0.34 -0.061,0.105 -0.152,0.177 -0.273,0.212 -0.121,0.032 -0.236,0.021 -0.344,-0.035 -0.105,-0.052 -0.186,-0.144 -0.225,-0.264 -0.059,-0.193 -0.164,-0.347 -0.322,-0.459 -0.152,-0.112 -0.338,-0.169 -0.555,-0.169 -0.25,0 -0.459,0.072 -0.635,0.223 -0.17,0.148 -0.254,0.318 -0.254,0.518 0,0.205 0.066,0.354 0.205,0.453 0.121,0.088 0.391,0.186 0.797,0.293 0.516,0.138 0.873,0.278 1.092,0.433 0.396,0.274 0.598,0.675 0.598,1.19 0,0.445 -0.18,0.834 -0.533,1.15 -0.351,0.315 -0.776,0.476 -1.269,0.476 z m -4.896,0 c -0.096,0 -0.186,-0.025 -0.264,-0.08 -0.078,-0.051 -0.139,-0.121 -0.176,-0.207 l -0.586,-1.389 h -1.91 l -0.586,1.389 c -0.049,0.116 -0.133,0.201 -0.254,0.25 -0.117,0.049 -0.24,0.049 -0.361,0.004 -0.115,-0.043 -0.203,-0.125 -0.256,-0.243 -0.053,-0.12 -0.053,-0.238 -0.006,-0.354 l 1.979,-4.701 c 0.037,-0.089 0.1,-0.16 0.182,-0.211 0.146,-0.101 0.365,-0.104 0.521,0.004 0.076,0.045 0.139,0.117 0.176,0.209 l 1.975,4.698 c 0.051,0.114 0.053,0.237 -0.002,0.355 -0.049,0.11 -0.139,0.196 -0.262,0.243 -0.047,0.02 -0.106,0.033 -0.17,0.033 z m -12.801,0 h -2.68 c -0.129,0 -0.242,-0.045 -0.338,-0.135 -0.092,-0.086 -0.141,-0.199 -0.141,-0.326 v -4.718 c 0,-0.129 0.047,-0.237 0.141,-0.323 0.094,-0.09 0.207,-0.135 0.338,-0.135 h 2.68 c 0.129,0 0.24,0.045 0.334,0.135 0.092,0.086 0.141,0.194 0.141,0.323 0,0.129 -0.049,0.238 -0.141,0.326 -0.09,0.088 -0.203,0.133 -0.334,0.133 h -2.211 v 1.437 h 1.838 c 0.129,0 0.242,0.043 0.332,0.132 0.094,0.088 0.145,0.202 0.145,0.327 0,0.125 -0.051,0.234 -0.146,0.326 -0.088,0.084 -0.199,0.129 -0.33,0.129 h -1.838 v 1.455 h 2.211 c 0.127,0 0.238,0.043 0.332,0.127 0.094,0.09 0.143,0.199 0.143,0.326 0,0.129 -0.049,0.241 -0.143,0.327 -0.094,0.089 -0.206,0.134 -0.333,0.134 z m -8.242,0 c -0.527,0 -0.986,-0.183 -1.363,-0.539 -0.377,-0.363 -0.566,-0.805 -0.566,-1.311 v -3.313 c 0,-0.125 0.047,-0.233 0.137,-0.322 0.193,-0.18 0.48,-0.184 0.67,-0.002 0.094,0.09 0.141,0.197 0.141,0.324 v 3.313 c 0,0.258 0.094,0.473 0.289,0.657 0.191,0.188 0.418,0.276 0.693,0.276 0.273,0 0.502,-0.091 0.701,-0.276 0.188,-0.183 0.283,-0.402 0.283,-0.657 v -3.313 c 0,-0.129 0.049,-0.237 0.145,-0.326 0.166,-0.17 0.486,-0.176 0.662,0.005 0.092,0.087 0.139,0.194 0.139,0.321 v 3.313 c 0,0.51 -0.191,0.95 -0.568,1.311 -0.375,0.356 -0.834,0.539 -1.363,0.539 z m -12.559,0 c -0.127,0 -0.238,-0.045 -0.334,-0.135 -0.092,-0.085 -0.141,-0.197 -0.141,-0.326 v -4.718 c 0,-0.129 0.049,-0.237 0.143,-0.325 0.184,-0.177 0.479,-0.177 0.666,0.002 0.09,0.086 0.137,0.193 0.137,0.323 v 4.718 c 0,0.131 -0.047,0.24 -0.139,0.326 -0.093,0.09 -0.207,0.135 -0.332,0.135 z m -5.289,0 c -0.121,0 -0.234,-0.047 -0.328,-0.135 -0.094,-0.086 -0.143,-0.199 -0.143,-0.326 v -4.24 h -1.072 c -0.133,0 -0.249,-0.047 -0.339,-0.135 -0.091,-0.084 -0.138,-0.195 -0.138,-0.324 0,-0.129 0.047,-0.236 0.14,-0.324 0.088,-0.088 0.206,-0.135 0.337,-0.135 h 3.096 c 0.129,0 0.24,0.045 0.336,0.133 0.092,0.09 0.139,0.197 0.139,0.326 0,0.129 -0.047,0.238 -0.139,0.326 -0.094,0.088 -0.207,0.133 -0.336,0.133 h -1.074 v 4.24 c 0,0.129 -0.051,0.241 -0.146,0.328 -0.09,0.087 -0.202,0.133 -0.333,0.133 z m -14.393,0 c -0.791,0 -1.476,-0.276 -2.037,-0.822 -0.563,-0.545 -0.848,-1.213 -0.848,-1.984 0,-0.773 0.286,-1.441 0.849,-1.986 0.559,-0.549 1.244,-0.826 2.037,-0.826 0.792,0 1.478,0.277 2.04,0.826 0.56,0.547 0.844,1.215 0.844,1.986 0,0.771 -0.284,1.438 -0.844,1.984 -0.565,0.544 -1.251,0.822 -2.041,0.822 z m -8.061,0 c -0.79,0 -1.476,-0.276 -2.037,-0.822 -0.563,-0.547 -0.848,-1.213 -0.848,-1.984 0,-0.771 0.285,-1.441 0.849,-1.986 0.559,-0.549 1.244,-0.826 2.037,-0.826 0.475,0 0.931,0.111 1.356,0.33 0.418,0.217 0.768,0.523 1.038,0.912 0.055,0.077 0.083,0.162 0.083,0.254 0,0.029 -0.004,0.063 -0.011,0.094 -0.026,0.123 -0.098,0.225 -0.205,0.291 -0.113,0.068 -0.242,0.082 -0.349,0.065 -0.13,-0.022 -0.234,-0.093 -0.304,-0.198 -0.182,-0.259 -0.411,-0.459 -0.699,-0.609 -0.28,-0.145 -0.587,-0.219 -0.909,-0.219 -0.542,0 -0.99,0.182 -1.371,0.555 -0.383,0.377 -0.569,0.814 -0.569,1.339 0,0.522 0.187,0.961 0.57,1.339 0.381,0.372 0.83,0.555 1.371,0.555 0.319,0 0.625,-0.074 0.909,-0.223 0.282,-0.145 0.518,-0.35 0.7,-0.609 0.068,-0.106 0.174,-0.176 0.303,-0.194 0.103,-0.022 0.245,0 0.345,0.063 0.109,0.066 0.181,0.17 0.205,0.295 0.007,0.029 0.011,0.063 0.011,0.096 0,0.088 -0.025,0.169 -0.078,0.246 -0.27,0.391 -0.619,0.697 -1.039,0.912 -0.43,0.213 -0.887,0.324 -1.358,0.324 z m 8.061,-4.702 c -0.539,0 -0.987,0.182 -1.371,0.556 -0.383,0.374 -0.569,0.812 -0.569,1.338 0,0.524 0.187,0.963 0.569,1.339 0.385,0.372 0.833,0.555 1.371,0.555 0.533,0 0.995,-0.188 1.371,-0.555 0.381,-0.377 0.567,-0.814 0.567,-1.339 0,-0.525 -0.186,-0.963 -0.567,-1.339 -0.376,-0.367 -0.837,-0.555 -1.371,-0.555 z m 84.223,2.112 h 1.141 l -0.568,-1.359 z m -33.49,0 h 1.145 l -0.57,-1.359 z"
   id="path14"
   inkscape:connector-curvature="0"
   style="fill:#f9f9f9" />
	</g><g
     id="g28"
     style="fill:#f9f9f9">
		<path
   d="M 46.458,50.85 C 34.943,50.85 25.61,41.516 25.61,30 c 0,-2.736 0.538,-5.344 1.498,-7.738 -4.348,0.607 -7.528,1.824 -10.049,3.151 -0.231,1.495 -0.353,3.026 -0.353,4.587 0,16.432 13.321,29.753 29.753,29.753 14.621,0 26.771,-10.55 29.272,-24.45 C 72.336,34.532 69.524,33.667 67.116,32.755 65.771,42.965 57.037,50.85 46.458,50.85 Z"
   id="path22"
   inkscape:connector-curvature="0"
   style="fill:#f9f9f9" />
		<path
   d="M 44.193,13.339 C 58.588,15.774 67.445,25.881 76.198,29.44 75.898,13.268 62.703,0.248 46.459,0.248 c -11.957,0 -22.26,7.057 -26.988,17.229 7.261,-4.267 16.84,-5.472 24.722,-4.138 z"
   id="path24"
   inkscape:connector-curvature="0"
   style="fill:#f9f9f9" />
		<path
   d="m 37.702,22.018 c -1.909,2.094 -3.077,4.875 -3.09,7.931 0.026,6.522 5.318,11.804 11.847,11.804 6.526,0 11.817,-5.276 11.846,-11.796 C 58.303,29.467 58.27,28.979 58.211,28.503 52.757,25.482 48.203,22.77 37.702,22.018 Z m 8.756,13.671 c -3.142,0 -5.689,-2.547 -5.689,-5.689 0,-3.142 2.547,-5.689 5.689,-5.689 3.142,0 5.689,2.547 5.689,5.689 0,3.142 -2.546,5.689 -5.689,5.689 z"
   id="path26"
   inkscape:connector-curvature="0"
   style="fill:#f9f9f9" />
	</g></g>
</svg>